<?xml version="1.0" standalone="no"?>
<!DOCTYPE svg PUBLIC "-//W3C//DTD SVG 20010904//EN"
 "http://www.w3.org/TR/2001/REC-SVG-20010904/DTD/svg10.dtd">
<svg version="1.0" xmlns="http://www.w3.org/2000/svg"
 width="640.000000pt" height="1344.000000pt" viewBox="0 0 640.000000 1344.000000"
 preserveAspectRatio="xMidYMid meet">

<g transform="translate(0.000000,1344.000000) scale(0.100000,-0.100000)"
fill="#000000" stroke="none">
<path d="M4380 10699 c-144 -12 -175 -12 -252 -4 -68 8 -170 -9 -243 -40 -17
-7 -46 -16 -65 -20 -89 -19 -176 -75 -259 -167 -8 -10 -39 -25 -68 -34 -29 -9
-53 -21 -53 -25 0 -5 -4 -9 -10 -9 -20 0 -133 -107 -174 -165 -16 -22 -43 -53
-60 -70 -39 -37 -72 -83 -79 -110 -4 -18 -5 -18 -6 3 -1 26 -21 30 -22 5 0
-10 -3 -13 -5 -6 -3 6 1 24 9 40 8 15 12 34 10 41 -3 8 7 27 23 43 15 16 25
32 21 35 -9 9 -37 -15 -37 -32 0 -8 -4 -14 -9 -14 -11 0 -59 -99 -90 -185
l-11 -30 4 35 c3 19 2 29 -1 23 -2 -7 -11 -13 -18 -13 -9 0 -16 -17 -20 -47
-3 -27 -12 -91 -21 -143 -8 -52 -14 -111 -13 -130 1 -19 0 -39 -2 -45 -2 -5 3
-26 10 -45 18 -48 21 -91 7 -96 -8 -3 -11 -24 -9 -62 4 -79 3 -174 -2 -183 -3
-3 2 -42 9 -85 23 -130 38 -254 41 -339 2 -44 9 -98 15 -120 6 -23 10 -57 8
-76 l-3 -34 -452 -3 -453 -2 0 -84 c0 -71 3 -84 18 -88 9 -2 190 -4 401 -4
l384 1 4 28 c3 24 1 27 -26 27 -17 0 -34 7 -39 16 -8 15 -12 15 -40 0 -35 -18
-78 -23 -52 -6 12 8 11 10 -7 10 -13 0 -23 5 -23 10 0 13 26 13 51 0 15 -8 24
-6 41 10 27 25 29 25 54 1 20 -18 21 -18 52 15 53 55 102 72 102 35 0 -11 4
-22 9 -25 8 -6 21 118 21 211 0 76 28 231 52 283 12 29 23 85 29 154 6 59 19
131 29 159 11 27 17 54 14 58 -2 4 2 11 9 16 7 4 23 23 36 41 12 17 31 32 42
32 10 0 19 7 19 15 0 9 9 15 25 15 14 0 29 8 35 20 6 10 16 17 24 14 7 -3 16
1 19 9 3 8 18 18 33 21 15 4 43 21 61 37 19 16 45 29 58 29 14 0 25 4 25 10 0
14 48 24 63 13 15 -13 94 -33 127 -34 37 -1 122 22 145 38 19 13 18 14 -9 7
l-28 -7 17 27 c15 22 20 24 33 14 8 -7 16 -11 16 -9 2 8 46 -11 46 -20 0 -5 7
-9 15 -9 8 0 15 -5 15 -11 0 -5 5 -7 11 -4 5 4 18 0 27 -9 17 -15 88 -16 112
-1 5 3 10 -1 10 -9 0 -11 11 -16 38 -18 65 -2 89 -5 103 -10 8 -3 36 -2 62 2
37 5 50 4 54 -6 3 -8 10 -14 17 -14 6 0 19 -12 28 -27 l17 -28 1 28 0 29 34
-29 c19 -15 33 -33 31 -38 -1 -6 6 -12 16 -12 11 -1 17 3 13 9 -4 6 1 8 12 6
13 -2 18 -10 16 -26 -3 -18 2 -22 24 -22 15 0 33 8 40 18 12 16 15 15 37 -10
13 -15 39 -29 60 -33 20 -4 37 -11 37 -15 0 -4 21 -2 47 6 30 9 49 11 53 4 3
-5 19 -9 35 -9 17 0 44 -2 60 -6 28 -6 29 -5 11 9 -11 9 -17 18 -15 21 7 7 49
-6 49 -15 0 -5 8 -6 18 -4 9 2 33 -5 52 -16 19 -10 45 -24 58 -31 39 -21 130
-113 141 -142 6 -16 20 -31 31 -34 11 -3 20 -12 20 -19 0 -8 6 -14 13 -14 7 0
30 -18 51 -40 21 -22 42 -40 48 -40 6 0 6 -6 -2 -15 -10 -12 -10 -15 4 -15 9
0 16 -7 16 -16 0 -10 6 -14 15 -10 9 3 19 -3 26 -16 9 -16 8 -19 -3 -13 -7 4
-3 -2 10 -14 12 -12 22 -27 22 -34 0 -7 9 -30 19 -51 26 -50 41 -92 51 -146 5
-25 16 -74 25 -110 24 -96 34 -167 36 -245 1 -82 -8 -125 -30 -142 -15 -12
-14 -14 2 -27 23 -17 22 -31 -5 -67 -16 -21 -19 -32 -11 -37 8 -5 10 -26 6
-67 -5 -46 -8 -54 -15 -36 -8 23 -28 20 -28 -5 0 -8 -11 -24 -25 -36 -19 -17
-25 -31 -25 -65 0 -24 -3 -43 -8 -43 -4 0 -6 18 -4 41 3 32 0 45 -17 60 -12
11 -26 17 -31 14 -16 -10 -12 -25 6 -25 16 0 16 -2 -3 -62 -3 -10 0 -18 6 -18
26 0 8 -27 -31 -45 l-42 -20 49 -6 c55 -6 56 -9 6 -14 -18 -1 -38 -9 -43 -16
-8 -11 -9 -10 -4 4 4 13 0 17 -22 17 -25 0 -27 -3 -27 -37 0 -37 -1 -38 -45
-44 -44 -6 -44 -6 -14 -13 26 -7 31 -12 31 -39 0 -18 -2 -26 -4 -19 -3 6 -17
12 -32 12 -31 0 -51 16 -51 42 0 35 -18 17 -22 -22 -2 -28 0 -40 9 -40 7 0 13
5 13 11 0 5 4 8 10 4 5 -3 7 -12 4 -19 -4 -10 -13 -11 -44 -3 -37 10 -42 9
-82 -23 -24 -19 -44 -38 -46 -42 -7 -17 -32 -7 -32 12 0 11 7 20 15 20 8 0 15
9 15 19 0 11 3 21 8 24 4 2 1 2 -6 0 -8 -1 -20 -3 -27 -3 -7 0 -12 -8 -11 -17
0 -10 -7 -19 -17 -21 -21 -4 -57 -37 -57 -52 0 -5 7 -10 15 -10 8 0 15 5 15
10 0 6 9 10 20 10 17 0 20 -7 20 -40 0 -33 -3 -40 -20 -40 -11 0 -20 5 -20 10
0 12 -27 13 -32 1 -1 -4 -21 -11 -43 -14 -22 -3 -32 -3 -22 -1 19 6 24 34 5
34 -6 0 -8 3 -5 7 4 3 -1 12 -11 19 -15 12 -15 15 -2 23 12 8 13 12 2 23 -11
11 -16 10 -26 -4 -18 -24 -26 -23 -27 5 l0 22 -9 -22 c-6 -14 -18 -23 -30 -23
-12 0 -24 9 -30 23 -9 22 -9 22 -10 -3 -1 -25 -1 -25 -10 -2 -12 28 -34 28
-53 1 -9 -12 -16 -16 -19 -9 -2 6 -22 13 -45 14 -22 2 -45 6 -51 10 -6 4 -15
-1 -19 -9 -8 -14 -13 -14 -39 -1 -16 8 -44 13 -62 12 -30 -3 -33 -1 -28 20 6
22 4 23 -24 18 -23 -5 -30 -3 -30 10 0 9 -7 16 -16 16 -11 0 -14 6 -9 20 5 15
3 18 -9 14 -21 -8 -20 0 2 22 16 17 16 17 -6 12 -18 -5 -21 -4 -12 7 6 7 23
15 38 18 72 16 107 94 82 186 -14 53 -23 47 -23 -17 1 -75 -45 -119 -60 -57
-3 14 -5 12 -6 -9 l-1 -29 -26 24 c-48 45 -196 27 -225 -28 -9 -17 -18 -22
-33 -17 -15 4 -17 3 -7 -4 7 -5 11 -14 7 -20 -10 -17 -66 6 -59 24 3 9 -2 14
-16 14 -12 0 -21 -4 -21 -8 0 -5 -11 -14 -25 -20 -26 -12 -50 -5 -83 25 -18
17 -53 25 -88 21 -21 -2 -34 -13 -49 -40 l-19 -37 28 -23 c16 -13 39 -28 50
-35 17 -10 18 -12 4 -13 -10 0 -19 -11 -23 -30 -4 -16 -11 -32 -16 -35 -5 -4
-9 -13 -9 -21 0 -19 -24 -44 -42 -44 -7 0 -19 -9 -26 -21 -10 -15 -20 -19 -35
-15 -37 10 -130 -15 -153 -41 -12 -12 -26 -23 -33 -23 -6 0 -18 -17 -26 -37
-9 -21 -21 -41 -28 -45 -9 -6 -9 -12 1 -28 15 -24 15 -30 2 -30 -5 0 -10 7
-10 15 0 8 -5 15 -10 15 -6 0 -13 -7 -16 -15 -4 -8 -17 -15 -30 -15 -18 0 -24
-6 -24 -22 -1 -22 -1 -22 -12 -4 -18 32 -42 56 -55 56 -12 0 -18 26 -14 58 1
6 -5 12 -14 12 -19 0 -38 -17 -49 -45 -8 -19 -8 -19 -17 4 -5 13 -7 32 -4 42
5 14 2 17 -9 13 -18 -7 -21 -25 -6 -40 5 -5 11 -26 12 -46 2 -20 6 -34 11 -31
4 2 7 -14 7 -36 0 -23 5 -41 10 -41 6 0 10 -7 10 -15 0 -31 41 -140 59 -155
13 -12 51 -97 51 -117 0 -2 -11 -3 -24 -3 -14 0 -28 -5 -32 -11 -7 -12 -209
-7 -249 6 -14 5 -16 4 -7 -3 14 -10 -116 -22 -235 -22 -40 0 -63 -4 -63 -11 0
-9 85 -11 322 -8 l322 4 12 -23 c6 -12 21 -33 33 -46 11 -12 21 -31 21 -43 0
-11 9 -28 20 -38 11 -10 20 -24 20 -32 0 -24 52 -120 128 -236 24 -36 42 -89
65 -187 9 -42 8 -48 -21 -90 -17 -25 -34 -58 -37 -72 -4 -14 -18 -36 -31 -49
-25 -23 -31 -53 -14 -64 6 -3 10 3 10 14 0 30 17 34 24 6 4 -14 11 -25 16 -25
6 0 10 -11 10 -25 0 -29 -6 -31 -26 -10 -19 19 -47 8 -41 -16 3 -10 0 -21 -7
-24 -6 -3 6 -3 27 -1 58 7 43 -9 -20 -21 -32 -7 -78 -16 -103 -21 l-45 -10 52
-1 c28 0 53 -6 55 -11 2 -6 20 -2 45 10 53 25 76 26 69 3 -29 -100 -29 -123
-2 -123 16 0 46 -32 46 -48 0 -17 -25 -15 -40 3 -25 30 -21 6 4 -28 28 -36 45
-97 28 -97 -5 0 -12 -8 -15 -17 -3 -10 -16 -34 -28 -53 -14 -22 10 -3 62 50
78 79 168 139 210 140 8 1 25 7 39 15 22 12 22 14 6 15 -28 0 -8 17 29 25 29
7 29 7 10 -9 -43 -35 78 -4 184 47 80 39 109 59 124 84 10 18 22 33 27 33 4 0
18 10 32 23 27 24 29 25 129 87 37 22 78 54 93 70 14 17 34 30 43 30 9 0 48
23 87 52 39 28 94 67 121 86 28 19 52 39 53 44 2 4 9 8 16 8 6 0 19 8 27 18 9
9 54 42 99 72 46 30 115 82 154 115 39 33 92 77 118 98 26 21 53 44 60 51 7 6
42 32 78 55 104 70 120 88 120 138 0 28 -4 43 -12 43 -9 0 -10 3 -2 8 6 4 14
41 18 83 5 60 15 91 46 152 21 42 36 77 33 77 -3 0 -1 6 4 13 9 11 34 82 60
167 11 35 27 124 38 214 6 45 8 48 31 42 13 -3 36 -9 50 -12 35 -9 103 15 115
40 9 18 8 19 -3 5 -7 -9 -24 -18 -38 -22 -14 -3 -35 -8 -47 -11 -33 -7 -53 18
-53 69 0 24 -5 56 -10 71 -13 32 -4 64 16 64 12 0 13 10 8 50 -4 31 -1 66 7
96 12 40 22 53 62 78 65 40 78 96 22 96 -37 0 -55 10 -55 32 0 11 -5 28 -10
39 -15 26 4 58 41 71 16 5 27 14 24 18 -3 4 2 10 10 14 22 8 18 26 -5 26 -24
0 -25 8 -3 32 20 22 11 33 -30 33 -28 1 -32 4 -29 25 1 13 6 27 10 30 10 7 32
42 38 63 9 26 60 23 69 -5 l8 -23 4 23 c2 12 8 22 13 22 4 0 3 13 -3 29 -16
44 -4 62 38 56 26 -3 35 0 35 10 0 8 -3 15 -7 15 -5 0 -16 14 -25 30 -24 43
-56 40 -101 -11 -21 -22 -37 -46 -37 -54 0 -7 -9 -15 -19 -18 -15 -4 -19 0
-16 14 2 11 7 24 11 31 4 7 3 8 -4 4 -7 -4 -12 -1 -12 9 0 9 5 13 10 10 6 -4
10 8 10 28 0 19 7 56 15 83 18 58 19 180 4 255 -6 30 -11 103 -10 163 2 167
-17 391 -41 474 -11 39 -24 72 -29 72 -4 0 -10 23 -14 51 -14 99 -78 217 -169
310 -46 47 -57 55 -91 63 l-30 6 24 -20 c27 -23 26 -25 -9 -33 -17 -4 -33 0
-50 13 l-25 20 33 -10 34 -9 -44 44 c-23 25 -46 45 -50 45 -4 0 -31 18 -60 40
-29 22 -58 40 -65 40 -7 0 -10 7 -7 15 8 19 -5 19 -30 0 -22 -16 -46 -4 -46
22 0 13 3 13 15 3 9 -7 19 -10 22 -6 4 4 1 11 -7 16 -27 17 -2 22 29 6 34 -18
51 -20 51 -7 0 9 -95 53 -122 56 -22 3 -48 24 -48 40 0 13 -1 13 -74 19 -34 3
-64 15 -102 40 -36 24 -65 36 -89 36 -19 0 -35 4 -35 9 0 24 -223 54 -287 38
-11 -3 -29 1 -40 8 -10 8 -20 14 -23 13 -3 0 -52 -5 -110 -9z m695 -169 c3 -5
1 -10 -4 -10 -6 0 -11 5 -11 10 0 6 2 10 4 10 3 0 8 -4 11 -10z m-180 -59 c-6
-5 -25 10 -25 20 0 5 6 4 14 -3 8 -7 12 -15 11 -17z m-88 -3 c2 -22 -32 -25
-40 -4 -7 18 0 25 22 23 9 0 18 -9 18 -19z m175 -36 c2 -4 27 -22 55 -41 29
-18 50 -37 47 -42 -9 -15 -21 -10 -56 21 -18 17 -41 33 -50 36 -10 3 -18 12
-18 20 0 15 16 20 22 6z m-52 -77 c0 -7 -7 -18 -15 -25 -13 -11 -15 -7 -15 25
0 32 2 36 15 25 8 -7 15 -18 15 -25z m-1490 15 c0 -5 -5 -10 -11 -10 -5 0 -7
5 -4 10 3 6 8 10 11 10 2 0 4 -4 4 -10z m1855 -19 c3 -5 1 -12 -4 -15 -5 -3
-11 1 -15 9 -6 16 9 21 19 6z m-328 -28 c3 -7 -3 -9 -16 -6 -12 3 -21 10 -21
15 0 13 32 6 37 -9z m73 -23 c0 -5 -2 -10 -4 -10 -3 0 -8 5 -11 10 -3 6 -1 10
4 10 6 0 11 -4 11 -10z m304 1 c3 -5 15 -7 25 -4 23 6 66 -30 56 -47 -5 -8
-12 -6 -25 5 -10 9 -24 14 -29 10 -6 -3 -11 -2 -11 4 0 6 -11 13 -25 17 -14 3
-25 10 -25 15 0 12 27 12 34 0z m-1982 -33 c-7 -7 -12 -8 -12 -2 0 14 12 26
19 19 2 -3 -1 -11 -7 -17z m1983 -15 c33 -16 46 -33 25 -33 -5 0 -10 5 -10 10
0 6 -6 10 -12 10 -13 1 -57 30 -45 30 3 0 22 -8 42 -17z m-2062 -23 c-3 -12
-8 -19 -11 -16 -5 6 5 36 12 36 2 0 2 -9 -1 -20z m638 -130 c-10 -25 -10 -25
-10 5 -1 17 3 48 7 70 l7 40 3 -45 c2 -25 -1 -57 -7 -70z m1263 45 c-4 -8 -8
-15 -10 -15 -2 0 -4 7 -4 15 0 8 4 15 10 15 5 0 7 -7 4 -15z m-2164 -619 c0
-3 -4 -8 -10 -11 -5 -3 -10 -1 -10 4 0 6 5 11 10 11 6 0 10 -2 10 -4z m-395
-1006 c6 -20 7 -20 25 2 17 21 19 22 26 5 3 -10 2 -23 -4 -29 -16 -16 -104
-27 -125 -16 -11 5 -31 6 -45 2 -15 -4 -42 -6 -61 -5 -20 2 -31 -1 -27 -7 11
-18 -12 -23 -28 -6 -11 10 -25 14 -41 10 -15 -4 -29 0 -39 9 -16 17 -51 21
-41 5 3 -5 -1 -10 -9 -10 -9 0 -16 9 -16 20 0 20 5 20 165 16 91 -2 168 -6
172 -10 12 -12 23 -6 23 14 0 26 17 26 25 0z m2995 -524 c0 -3 -4 -8 -10 -11
-5 -3 -10 -1 -10 4 0 6 5 11 10 11 6 0 10 -2 10 -4z m-1280 -162 c0 -8 -4 -14
-10 -14 -5 0 -10 6 -10 13 0 7 -3 8 -8 2 -14 -20 -51 -35 -58 -24 -8 13 -5 15
36 33 38 15 50 13 50 -10z m-260 -104 c0 -5 -4 -10 -10 -10 -5 0 -10 5 -10 10
0 6 5 10 10 10 6 0 10 -4 10 -10z m973 -293 c7 -2 -1 -2 -16 1 -21 3 -35 -2
-50 -19 l-22 -24 -3 39 c-2 28 2 41 15 51 11 8 20 9 24 4 3 -6 12 -2 20 7 13
16 14 14 17 -19 2 -20 9 -38 15 -40z m-836 57 c-3 -3 -12 -4 -19 -1 -8 3 -5 6
6 6 11 1 17 -2 13 -5z m-77 -14 c0 -6 -8 -13 -17 -16 -10 -3 -25 -9 -33 -13
-17 -9 -70 6 -70 19 0 5 21 11 48 13 26 2 53 4 60 5 6 1 12 -3 12 -8z m800
-10 c0 -5 -5 -10 -11 -10 -5 0 -7 5 -4 10 3 6 8 10 11 10 2 0 4 -4 4 -10z
m124 -79 c3 -5 -1 -11 -9 -15 -9 -3 -15 0 -15 9 0 16 16 20 24 6z m-1798 -68
c-11 -11 -19 6 -11 24 8 17 8 17 12 0 3 -10 2 -21 -1 -24z m164 16 c0 -5 4 -8
10 -4 5 3 16 -8 25 -25 9 -17 11 -30 5 -30 -5 0 -10 4 -10 8 0 5 -11 14 -25
20 -24 11 -35 42 -15 42 6 0 10 -5 10 -11z m720 -10 c3 0 13 0 23 1 23 2 72
-47 51 -52 -20 -5 12 -65 39 -72 78 -20 -177 -59 -309 -47 -62 6 -122 29 -109
43 3 3 -6 3 -20 0 -20 -3 -24 -1 -19 11 3 9 14 19 25 22 10 4 19 15 19 26 0
10 7 19 15 19 8 0 14 6 13 13 -2 8 16 13 60 15 34 2 62 7 62 12 0 12 122 20
150 9z m135 -39 c3 -5 1 -10 -4 -10 -6 0 -11 5 -11 10 0 6 2 10 4 10 3 0 8 -4
11 -10z m-835 -45 c0 -24 -1 -24 -20 -8 -20 18 -17 22 18 32 1 1 2 -10 2 -24z
m45 -45 c-4 -17 -12 -29 -18 -27 -18 6 -20 27 -3 27 13 0 15 6 10 28 -5 21 -4
24 6 15 8 -7 10 -22 5 -43z m203 -48 c2 -7 -3 -12 -12 -12 -9 0 -16 7 -16 16
0 17 22 14 28 -4z m61 -44 c0 -16 -2 -18 -6 -8 -3 8 -11 18 -17 22 -7 5 -4 8
7 8 11 0 17 -7 16 -22z m-54 1 c11 -17 -1 -21 -15 -4 -8 9 -8 15 -2 15 6 0 14
-5 17 -11z m106 -42 c-13 -13 -26 -3 -16 12 3 6 11 8 17 5 6 -4 6 -10 -1 -17z
m-86 -17 c3 -5 -1 -10 -9 -10 -9 0 -16 5 -16 10 0 6 4 10 9 10 6 0 13 -4 16
-10z m143 -30 c15 -24 8 -40 -17 -40 -14 0 -17 6 -13 30 5 35 12 38 30 10z
m532 -40 c0 -11 -7 -20 -15 -20 -13 0 -14 4 -5 20 6 11 13 20 15 20 3 0 5 -9
5 -20z m-420 -45 c9 -17 19 -23 31 -20 32 10 32 -16 0 -28 -34 -13 -51 -38
-20 -30 26 7 24 -9 -2 -26 -19 -11 -25 -10 -50 8 -16 12 -29 17 -29 11 0 -5
-4 -10 -10 -10 -5 0 -10 9 -10 20 0 15 7 20 26 20 20 0 25 4 22 22 -2 12 -11
22 -23 24 -11 2 -21 7 -23 13 -2 5 -9 8 -17 5 -7 -3 -16 -1 -20 5 -4 7 13 11
53 11 52 0 60 -3 72 -25z m340 -5 c0 -5 -2 -10 -4 -10 -3 0 -8 5 -11 10 -3 6
-1 10 4 10 6 0 11 -4 11 -10z m-212 -31 c-2 -6 -8 -10 -13 -10 -5 0 -11 4 -13
10 -2 6 4 11 13 11 9 0 15 -5 13 -11z m-33 -19 c3 -6 -1 -7 -10 -4 -11 5 -14
2 -9 -10 8 -20 -9 -21 -25 -2 -9 11 -9 15 1 19 21 9 36 8 43 -3z m95 -10 c0
-5 -2 -10 -4 -10 -3 0 -8 5 -11 10 -3 6 -1 10 4 10 6 0 11 -4 11 -10z m236 -4
c21 -21 18 -26 -16 -26 -23 0 -30 4 -30 20 0 23 25 27 46 6z m-289 -18 c6 17
30 15 36 -2 4 -10 1 -13 -8 -10 -8 3 -29 -8 -47 -25 -36 -33 -43 -36 -53 -21
-3 6 3 10 14 10 21 0 25 9 21 45 -2 17 0 18 16 5 13 -12 18 -12 21 -2z m183 2
c-20 -13 -60 -13 -60 0 0 6 17 10 38 10 27 0 33 -3 22 -10z m-260 -20 c0 -5
-4 -10 -10 -10 -5 0 -10 5 -10 10 0 6 5 10 10 10 6 0 10 -4 10 -10z m150 -20
c0 -4 -6 -10 -14 -13 -10 -4 -12 0 -9 14 5 18 23 18 23 -1z m145 -9 c9 -16 -9
-20 -23 -5 -10 12 -10 14 2 14 8 0 17 -4 21 -9z m-198 -7 c-3 -3 -12 -4 -19
-1 -8 3 -5 6 6 6 11 1 17 -2 13 -5z m-50 -36 c-3 -8 -6 -5 -6 6 -1 11 2 17 5
13 3 -3 4 -12 1 -19z m-377 -547 c-1 -25 -1 -25 -15 8 -19 42 -19 47 0 31 8
-7 15 -24 15 -39z m67 -99 c11 -11 13 -11 13 3 0 9 4 14 9 10 5 -3 12 -1 16 5
14 23 25 7 25 -40 l0 -50 35 0 c19 0 55 -7 81 -16 36 -12 53 -13 71 -5 36 17
128 14 143 -4 7 -8 23 -15 36 -15 17 0 24 -6 24 -20 0 -11 6 -20 13 -20 21 0
28 12 16 27 -8 9 -8 13 -1 13 20 0 25 -41 8 -59 -15 -14 -18 -14 -27 -1 -9 12
-10 11 -6 -7 4 -20 2 -22 -27 -17 -17 2 -25 2 -18 -2 21 -10 13 -21 -28 -38
-22 -9 -40 -19 -40 -23 0 -17 -59 -33 -117 -30 -53 2 -65 -1 -83 -20 -11 -13
-32 -26 -45 -29 -14 -3 -25 -10 -25 -16 0 -5 -8 -8 -17 -6 -10 1 -24 -1 -30
-5 -7 -4 -22 -3 -33 3 -17 9 -19 17 -13 58 3 26 13 53 21 61 12 13 12 16 -4
28 -10 7 -22 13 -27 13 -4 0 -5 5 -1 11 4 7 0 9 -14 5 -19 -6 -19 -4 -10 41 6
26 18 53 27 60 9 6 12 15 7 20 -5 4 -11 2 -13 -4 -3 -7 -9 -13 -15 -13 -6 0
-8 6 -5 13 3 8 1 35 -4 60 -7 39 -5 51 9 68 17 20 17 20 27 -13 5 -18 15 -39
22 -46z m-152 -22 c3 -5 1 -10 -4 -10 -6 0 -11 5 -11 10 0 6 2 10 4 10 3 0 8
-4 11 -10z m288 -7 c-7 -2 -19 -2 -25 0 -7 3 -2 5 12 5 14 0 19 -2 13 -5z
m-173 -184 c0 -16 -30 -43 -38 -34 -4 4 -1 10 6 12 6 3 12 11 12 19 0 8 5 14
10 14 6 0 10 -5 10 -11z m10 -58 c0 -27 -17 -35 -23 -11 -5 19 0 30 15 30 4 0
8 -9 8 -19z m-37 -151 c-3 -11 -9 -17 -14 -15 -10 7 -1 35 11 35 5 0 6 -9 3
-20z"/>
<path d="M3735 6113 c7 -49 11 -60 20 -51 9 8 -7 98 -17 98 -6 0 -8 -18 -3
-47z"/>
<path d="M3741 5964 c0 -11 3 -14 6 -6 3 7 2 16 -1 19 -3 4 -6 -2 -5 -13z"/>
<path d="M3819 5919 c-15 -9 -15 -9 19 -13 13 -2 25 1 27 5 7 11 -31 18 -46 8z"/>
<path d="M3945 5900 c-3 -5 -1 -10 4 -10 6 0 11 5 11 10 0 6 -2 10 -4 10 -3 0
-8 -4 -11 -10z"/>
<path d="M3890 5890 c-20 -12 -10 -19 14 -10 11 3 15 9 10 13 -6 3 -16 2 -24
-3z"/>
<path d="M4015 5840 c27 -12 43 -12 25 0 -8 5 -22 9 -30 9 -10 0 -8 -3 5 -9z"/>
<path d="M3875 5820 c-3 -5 1 -10 9 -10 9 0 16 5 16 10 0 6 -4 10 -9 10 -6 0
-13 -4 -16 -10z"/>
<path d="M5038 10593 c7 -3 16 -2 19 1 4 3 -2 6 -13 5 -11 0 -14 -3 -6 -6z"/>
<path d="M5375 10370 c10 -11 25 -20 34 -20 12 1 10 5 -8 20 -30 26 -49 26
-26 0z"/>
<path d="M5434 10325 c26 -20 42 -19 22 0 -8 8 -21 15 -28 15 -8 -1 -6 -6 6
-15z"/>
<path d="M3124 10145 c-10 -26 1 -35 13 -10 6 14 7 25 2 25 -5 0 -12 -7 -15
-15z"/>
<path d="M4728 9443 c7 -3 16 -2 19 1 4 3 -2 6 -13 5 -11 0 -14 -3 -6 -6z"/>
<path d="M4562 9265 c-2 -25 19 -38 43 -28 24 8 14 36 -15 43 -22 6 -26 4 -28
-15z"/>
<path d="M5152 9266 c1 -10 8 -17 13 -17 15 1 12 24 -3 29 -9 3 -13 -2 -10
-12z"/>
<path d="M4880 9060 c0 -11 -4 -20 -10 -20 -5 0 -10 4 -10 9 0 5 -32 9 -70 8
-54 -1 -69 -4 -66 -14 4 -10 -7 -13 -47 -12 -73 1 -197 -22 -197 -37 0 -7 8
-10 22 -6 15 4 19 2 13 -7 -4 -7 -17 -10 -30 -7 -13 3 -27 2 -30 -4 -3 -5 -17
-10 -31 -10 -15 0 -24 -6 -24 -15 0 -20 -10 -19 -26 3 -12 15 -13 12 -14 -28
0 -36 -3 -41 -11 -27 -24 41 -79 2 -79 -58 0 -21 -5 -35 -13 -35 -6 0 -18 -18
-25 -40 -16 -52 -16 -120 1 -120 9 0 9 -2 0 -8 -17 -11 -44 -78 -38 -96 16
-52 14 -50 30 -30 13 18 14 16 15 -19 l0 -39 68 4 c44 3 66 9 64 16 -1 7 5 12
13 12 8 0 15 -7 15 -15 0 -17 36 -39 55 -32 7 3 11 15 8 30 -3 16 1 26 11 30
13 5 15 2 10 -18 -5 -21 -1 -25 31 -34 20 -5 43 -7 51 -4 8 3 14 0 14 -6 0 -6
-4 -11 -10 -11 -21 0 -9 -18 15 -22 31 -6 38 1 22 20 -10 14 -9 15 8 8 11 -5
34 -12 50 -16 l30 -8 -27 -1 c-33 -1 -38 -27 -5 -28 51 -2 123 -15 132 -24 5
-5 20 -9 33 -9 19 0 22 4 17 20 -6 20 -4 21 42 14 38 -5 53 -3 66 10 22 22 36
20 30 -5 -5 -17 -2 -20 13 -17 10 2 20 13 22 24 2 16 12 23 42 28 36 6 100 54
100 77 0 5 9 9 20 9 11 0 20 4 20 8 0 5 18 14 40 21 22 6 40 16 40 21 0 6 11
10 25 10 15 0 25 6 25 15 0 8 10 21 23 30 14 8 28 33 35 61 14 51 13 54 -15
57 -15 1 -18 7 -15 29 4 23 1 28 -17 28 -11 0 -21 6 -21 14 0 7 -13 24 -29 37
-16 13 -39 41 -51 62 -12 20 -28 37 -36 37 -8 0 -17 7 -20 15 -4 8 -12 15 -19
15 -7 0 -18 6 -25 14 -6 8 -18 12 -26 9 -9 -3 -21 3 -29 15 -8 11 -27 23 -42
27 -17 5 -23 9 -14 13 22 8 -48 35 -101 39 -43 3 -48 1 -48 -17z m-45 -206
c11 -8 31 -13 45 -11 14 2 19 2 13 0 -7 -3 -13 -13 -13 -23 0 -17 -2 -18 -27
-4 -16 7 -34 14 -40 14 -7 0 -13 9 -13 20 0 24 8 25 35 4z m-27 -61 c-10 -2
-26 -2 -35 0 -10 3 -2 5 17 5 19 0 27 -2 18 -5z m-125 -10 c-7 -2 -21 -2 -30
0 -10 3 -4 5 12 5 17 0 24 -2 18 -5z m144 -9 c-3 -3 -12 -4 -19 -1 -8 3 -5 6
6 6 11 1 17 -2 13 -5z m-13 -50 c9 -3 16 -11 16 -16 0 -6 -6 -5 -15 2 -8 7
-22 10 -30 6 -8 -3 -15 -1 -15 4 0 11 21 13 44 4z m56 -8 c0 -3 -4 -8 -10 -11
-5 -3 -10 -1 -10 4 0 6 5 11 10 11 6 0 10 -2 10 -4z m-20 -61 c0 -8 -4 -15
-10 -15 -5 0 -10 7 -10 15 0 8 5 15 10 15 6 0 10 -7 10 -15z m-114 -62 c10
-27 24 -56 32 -66 9 -9 13 -19 11 -21 -2 -3 -33 0 -69 6 -36 5 -93 9 -127 8
-72 -1 -85 15 -20 25 32 5 48 14 62 36 11 16 25 29 31 29 6 0 17 7 24 15 22
26 38 17 56 -32z m314 9 c0 -5 -14 -18 -31 -31 l-31 -23 4 23 c2 15 12 26 28
30 14 4 26 7 28 8 1 1 2 -3 2 -7z m-605 -52 c-3 -5 -10 -10 -16 -10 -5 0 -9 5
-9 10 0 6 7 10 16 10 8 0 12 -4 9 -10z m370 -50 c3 -5 1 -10 -4 -10 -6 0 -11
5 -11 10 0 6 2 10 4 10 3 0 8 -4 11 -10z m-98 -46 c-3 -3 -12 -4 -19 -1 -8 3
-5 6 6 6 11 1 17 -2 13 -5z"/>
<path d="M3490 8886 c-18 -17 -48 -22 -73 -11 -12 5 -22 2 -30 -8 -10 -12 -22
-14 -62 -7 -64 10 -81 3 -133 -56 -23 -27 -49 -56 -57 -65 -21 -22 -19 -35 10
-73 14 -18 25 -40 25 -49 0 -9 10 -22 23 -28 31 -16 30 -15 17 -38 -6 -12 -17
-21 -24 -21 -31 0 -34 -57 -7 -116 16 -36 24 -42 60 -48 32 -5 41 -11 41 -26
0 -11 5 -20 11 -20 6 0 19 -10 29 -22 16 -21 27 -23 109 -23 50 0 91 -1 91 -1
0 -7 -107 -34 -137 -35 -35 0 -36 -1 -13 -10 15 -6 64 -7 123 -3 89 6 100 9
128 35 17 16 37 29 44 29 8 0 16 9 20 19 8 25 41 36 60 21 12 -10 15 -9 15 5
0 21 38 54 63 55 10 0 15 4 12 10 -3 5 0 7 8 4 10 -3 17 4 21 20 4 16 16 28
32 32 14 4 23 12 21 18 -3 7 4 18 14 24 23 14 25 42 4 42 -8 0 -15 5 -15 10 0
6 7 10 15 10 8 0 15 9 15 19 0 11 -7 26 -15 35 -8 8 -15 30 -15 50 0 19 -5 38
-11 42 -8 4 -7 9 2 14 9 6 4 16 -20 36 -18 15 -30 33 -27 40 5 13 -6 19 -27
15 -4 -1 -12 10 -17 24 -6 16 -17 25 -30 25 -12 0 -31 5 -42 11 -19 10 -79 21
-103 19 -60 -5 -125 -4 -125 2 0 12 -14 9 -30 -6z m-210 -256 c0 -5 -4 -10
-10 -10 -5 0 -10 5 -10 10 0 6 5 10 10 10 6 0 10 -4 10 -10z m77 4 c-3 -3 -12
-4 -19 -1 -8 3 -5 6 6 6 11 1 17 -2 13 -5z m-57 -48 c0 -3 -4 -8 -10 -11 -5
-3 -10 -1 -10 4 0 6 5 11 10 11 6 0 10 -2 10 -4z m214 -5 c-17 -4 -36 -11 -42
-15 -14 -8 -54 2 -48 12 2 4 30 8 63 9 45 1 51 0 27 -6z m-104 -20 c0 -16 -25
-19 -38 -5 -11 12 -8 14 13 14 14 0 25 -4 25 -9z m-90 -28 c-1 -13 -51 -45
-58 -38 -4 4 4 15 17 26 24 20 41 25 41 12z m220 -13 c0 -11 -4 -20 -10 -20
-5 0 -10 9 -10 20 0 11 5 20 10 20 6 0 10 -9 10 -20z m159 -19 c15 -10 24 -61
11 -61 -5 0 -11 6 -13 13 -4 9 -8 9 -15 -2 -14 -19 -24 2 -16 34 7 27 12 29
33 16z m-265 -56 c11 -25 23 -45 28 -45 4 0 8 -7 8 -16 0 -14 -7 -15 -37 -10
-21 3 -46 6 -57 6 -15 0 -17 5 -13 30 7 31 34 80 46 80 4 0 15 -20 25 -45z
m356 5 c0 -5 -4 -10 -9 -10 -6 0 -13 5 -16 10 -3 6 1 10 9 10 9 0 16 -4 16
-10z m-430 -9 c0 -17 -12 -41 -21 -41 -10 0 -12 33 -2 43 9 10 23 9 23 -2z
m430 -31 c0 -5 -7 -7 -15 -4 -10 4 -15 0 -15 -12 0 -16 -2 -16 -10 -4 -6 9 -5
17 3 22 17 11 37 10 37 -2z m-145 -39 c-3 -6 -14 -11 -23 -11 -15 1 -15 2 2
15 21 16 32 13 21 -4z m-60 -1 c-3 -5 -11 -10 -16 -10 -6 0 -7 5 -4 10 3 6 11
10 16 10 6 0 7 -4 4 -10z m-38 -126 c-3 -3 -12 -4 -19 -1 -8 3 -5 6 6 6 11 1
17 -2 13 -5z"/>
<path d="M5980 8576 c0 -8 4 -17 9 -20 5 -4 7 3 4 14 -6 23 -13 26 -13 6z"/>
<path d="M2955 8509 c-4 -5 -3 -14 1 -21 4 -7 3 -8 -4 -4 -9 5 -12 -7 -12 -41
0 -35 3 -44 10 -33 9 13 10 13 10 0 0 -8 10 5 21 29 11 24 29 46 40 48 10 3
19 10 19 15 0 5 -6 8 -12 5 -7 -2 -25 0 -40 4 -16 4 -30 3 -33 -2z"/>
<path d="M3010 8471 c0 -5 7 -14 15 -21 13 -10 15 -9 15 9 0 12 -6 21 -15 21
-8 0 -15 -4 -15 -9z"/>
<path d="M6030 8410 c-16 -29 -24 -106 -12 -114 11 -7 33 75 30 112 -3 27 -4
27 -18 2z"/>
<path d="M6081 8364 c0 -11 3 -14 6 -6 3 7 2 16 -1 19 -3 4 -6 -2 -5 -13z"/>
<path d="M5840 8330 c0 -6 7 -10 15 -10 8 0 15 2 15 4 0 2 -7 6 -15 10 -8 3
-15 1 -15 -4z"/>
<path d="M3023 8270 c0 -30 2 -43 4 -27 2 15 2 39 0 55 -2 15 -4 2 -4 -28z"/>
<path d="M6021 8254 c0 -11 3 -14 6 -6 3 7 2 16 -1 19 -3 4 -6 -2 -5 -13z"/>
<path d="M5600 8199 c0 -24 4 -38 10 -34 6 3 10 22 10 41 0 19 -4 34 -10 34
-5 0 -10 -18 -10 -41z"/>
<path d="M6032 8170 c0 -14 2 -19 5 -12 2 6 2 18 0 25 -3 6 -5 1 -5 -13z"/>
<path d="M5990 8171 c0 -6 -4 -11 -10 -11 -31 0 -84 -90 -62 -104 15 -9 62 38
62 62 0 27 17 38 23 15 3 -12 5 -8 6 9 0 15 -3 30 -9 33 -5 3 -10 1 -10 -4z"/>
<path d="M5470 8150 c0 -13 20 -13 40 0 12 8 9 10 -12 10 -16 0 -28 -4 -28
-10z"/>
<path d="M3028 8134 c-13 -12 -9 -103 7 -187 15 -78 34 -131 35 -96 0 8 -5 42
-11 74 -6 32 -14 94 -17 137 -4 44 -10 76 -14 72z"/>
<path d="M4380 8120 c0 -5 5 -10 10 -10 6 0 10 5 10 10 0 6 -4 10 -10 10 -5 0
-10 -4 -10 -10z"/>
<path d="M5576 8105 c-9 -24 -8 -25 15 -25 14 0 19 5 17 17 -4 23 -24 27 -32
8z"/>
<path d="M5345 8090 c-3 -5 -1 -10 4 -10 6 0 11 5 11 10 0 6 -2 10 -4 10 -3 0
-8 -4 -11 -10z"/>
<path d="M5410 8085 l-35 -14 35 3 c19 2 36 8 38 15 4 13 7 13 -38 -4z"/>
<path d="M5545 8060 c-7 -11 42 -26 53 -16 7 8 -17 26 -35 26 -6 0 -15 -4 -18
-10z"/>
<path d="M4430 8051 c0 -6 5 -13 10 -16 6 -3 10 1 10 9 0 9 -4 16 -10 16 -5 0
-10 -4 -10 -9z"/>
<path d="M5370 8031 c0 -5 7 -11 15 -15 9 -3 15 0 15 9 0 8 -7 15 -15 15 -8 0
-15 -4 -15 -9z"/>
<path d="M6001 8023 c0 -13 -5 -23 -11 -23 -5 0 -7 -7 -3 -17 5 -13 8 -12 15
7 5 13 7 31 5 39 -3 10 -5 7 -6 -6z"/>
<path d="M5441 7993 c-1 -7 -9 -13 -18 -13 -17 -1 -17 -1 0 -14 21 -16 22 -36
1 -36 -8 0 -13 -4 -9 -9 3 -5 1 -12 -5 -16 -6 -4 -8 -11 -4 -16 4 -6 12 -5 22
4 10 8 24 17 33 18 15 4 15 8 -2 49 -10 25 -18 39 -18 33z"/>
<path d="M4126 7891 c-4 -7 -5 -15 -2 -18 9 -9 19 4 14 18 -4 11 -6 11 -12 0z"/>
<path d="M3076 7800 c8 -43 14 -51 14 -19 0 13 -5 31 -10 39 -7 11 -8 5 -4
-20z"/>
<path d="M5956 7793 c-6 -14 -5 -15 5 -6 7 7 10 15 7 18 -3 3 -9 -2 -12 -12z"/>
<path d="M5825 7740 c3 -5 8 -10 11 -10 2 0 4 5 4 10 0 6 -5 10 -11 10 -5 0
-7 -4 -4 -10z"/>
<path d="M3095 7725 c4 -11 11 -47 17 -80 6 -33 19 -77 29 -97 11 -21 19 -45
19 -55 1 -17 1 -17 11 -1 7 13 5 28 -9 55 -11 21 -25 63 -32 93 -7 30 -19 66
-27 80 -9 16 -12 18 -8 5z"/>
<path d="M5165 7730 c-8 -14 3 -30 21 -30 8 0 14 9 14 20 0 21 -24 28 -35 10z"/>
<path d="M4500 7650 c0 -5 5 -10 10 -10 6 0 10 5 10 10 0 6 -4 10 -10 10 -5 0
-10 -4 -10 -10z"/>
<path d="M4960 7560 c0 -5 7 -10 15 -10 8 0 15 5 15 10 0 6 -7 10 -15 10 -8 0
-15 -4 -15 -10z"/>
<path d="M2858 6973 c7 -3 16 -2 19 1 4 3 -2 6 -13 5 -11 0 -14 -3 -6 -6z"/>
<path d="M2585 6950 c-3 -5 -1 -10 4 -10 6 0 11 5 11 10 0 6 -2 10 -4 10 -3 0
-8 -4 -11 -10z"/>
<path d="M4861 6243 c-20 -8 -51 -41 -51 -54 0 -5 -8 -9 -17 -8 -25 4 -62 -17
-102 -59 -34 -34 -162 -122 -178 -122 -4 0 -14 -13 -21 -30 -8 -18 -21 -30
-32 -30 -23 0 -35 -16 -18 -23 10 -4 10 -6 1 -6 -12 -1 -43 -51 -43 -70 0 -12
15 -7 85 25 28 12 63 26 78 29 15 4 30 11 33 16 3 5 12 9 20 9 20 0 214 93
214 103 0 4 -8 7 -17 7 -42 1 18 21 64 21 56 1 114 25 107 44 -9 23 14 27 26
4 9 -16 18 -19 36 -15 16 4 24 2 24 -7 0 -22 67 -77 94 -77 24 0 104 -42 116
-61 3 -4 19 -11 35 -15 17 -4 35 -10 40 -14 6 -4 51 -22 102 -39 51 -17 100
-35 110 -40 17 -9 99 -33 153 -46 15 -4 33 0 45 9 19 15 18 15 -11 10 -36 -7
-157 31 -232 73 -65 36 -67 37 -157 75 -44 18 -81 36 -83 41 -2 4 -10 7 -17 7
-18 0 -157 101 -224 162 -30 28 -64 56 -75 63 -25 16 -85 26 -105 18z m75
-118 c8 -19 -13 -45 -36 -45 -10 0 -20 -5 -22 -11 -2 -5 -11 -7 -21 -4 -14 6
-12 12 18 41 39 37 53 42 61 19z"/>
<path d="M4390 5905 c-7 -8 -9 -15 -6 -15 4 0 14 7 22 15 9 8 11 15 6 15 -5 0
-15 -7 -22 -15z"/>
<path d="M675 5900 c-3 -5 1 -22 9 -37 l15 -28 1 32 c0 32 -14 51 -25 33z"/>
<path d="M4310 5800 c-36 -16 -85 -32 -110 -35 -99 -13 -247 -54 -275 -75 -5
-4 -26 -11 -45 -15 -49 -10 -105 -40 -173 -92 -64 -50 -72 -69 -11 -28 100 69
153 86 344 114 25 4 59 14 75 23 17 9 46 24 65 32 94 40 167 75 185 90 27 21
21 19 -55 -14z"/>
<path d="M823 5780 c-3 -11 -10 -20 -17 -20 -6 0 -3 -5 7 -11 30 -17 19 -46
-15 -40 -5 0 -8 -6 -8 -14 0 -8 7 -15 15 -15 22 0 21 -76 -1 -84 -21 -8 -13
-70 16 -127 11 -21 20 -43 20 -50 0 -6 9 -22 20 -36 15 -20 20 -22 20 -9 0 14
4 15 21 6 11 -7 26 -9 33 -7 7 3 34 1 60 -5 38 -8 54 -7 80 6 23 11 64 16 123
17 56 0 81 3 68 9 l-20 8 20 8 c19 8 19 8 -5 15 -20 6 -21 7 -5 8 13 1 24 12
31 34 6 17 14 41 18 52 7 17 6 17 -4 5 -9 -11 -13 -12 -17 -2 -2 6 -11 12 -19
12 -8 0 -14 5 -14 10 0 6 7 10 15 10 21 0 19 18 -4 25 -28 9 -68 49 -63 64 3
9 -5 12 -24 9 -20 -2 -28 -8 -26 -19 1 -9 -5 -22 -13 -29 -13 -11 -15 -8 -15
18 0 17 -8 38 -17 48 -16 16 -13 16 48 12 48 -3 66 0 66 9 0 9 -27 12 -106 11
-127 -2 -151 7 -151 57 l0 35 -66 0 c-57 0 -67 -3 -71 -20z m54 -96 c-3 -3
-12 -4 -19 -1 -8 3 -5 6 6 6 11 1 17 -2 13 -5z m147 0 c22 -9 20 -41 -3 -49
-11 -3 -18 -12 -15 -19 3 -9 -5 -15 -24 -18 -26 -4 -28 -2 -24 21 3 15 15 36
26 48 24 26 20 25 40 17z m-90 -60 c9 -22 8 -24 -9 -24 -8 0 -15 9 -15 20 0
24 15 27 24 4z m140 -19 c11 -8 15 -15 9 -15 -6 0 -18 -3 -27 -6 -12 -4 -16 0
-16 15 0 25 8 26 34 6z m46 -115 c0 -5 -5 -10 -11 -10 -5 0 -7 5 -4 10 3 6 8
10 11 10 2 0 4 -4 4 -10z m-241 -70 c0 -20 -3 -17 -14 15 -19 51 -18 67 0 35
8 -14 14 -36 14 -50z m285 25 c3 -9 0 -15 -9 -15 -8 0 -15 7 -15 15 0 8 4 15
9 15 5 0 11 -7 15 -15z m16 -35 c0 -5 -12 -10 -26 -10 -14 0 -23 4 -19 10 3 6
15 10 26 10 10 0 19 -4 19 -10z"/>
<path d="M1272 5714 c-8 -9 -9 -14 -2 -14 6 0 8 -4 5 -10 -3 -5 -1 -10 5 -10
7 0 9 -8 5 -19 -6 -20 30 -69 42 -58 7 8 -17 77 -27 77 -4 0 -6 8 -3 19 6 24
-8 33 -25 15z"/>
<path d="M2952 5690 c-16 -26 -1 -26 29 0 23 18 23 19 4 20 -11 0 -26 -9 -33
-20z"/>
<path d="M1333 5567 c4 -10 7 -25 7 -33 0 -8 5 -14 10 -14 16 0 11 36 -7 51
-15 12 -16 12 -10 -4z"/>
<path d="M1332 5461 c-39 -42 -41 -56 -9 -56 15 0 21 5 19 17 -2 13 3 17 20
15 19 -2 22 2 20 23 -6 39 -14 39 -50 1z"/>
<path d="M2016 5475 c-11 -8 -28 -15 -38 -15 -10 0 -18 -6 -18 -13 0 -9 -9
-12 -27 -10 -19 3 -36 -3 -50 -16 -12 -12 -26 -21 -30 -21 -32 0 -139 -184
-168 -287 -4 -13 -11 -23 -16 -23 -5 0 -9 -12 -10 -27 0 -36 -32 -138 -43
-138 -4 0 -15 23 -25 50 -37 101 -49 116 -81 95 -12 -7 -12 -12 -2 -22 7 -7
12 -37 12 -70 0 -51 -2 -58 -20 -58 -23 0 -23 27 -1 54 8 9 11 19 8 22 -8 9
-79 -18 -103 -38 -11 -10 -26 -18 -32 -18 -7 0 -12 -4 -12 -10 0 -5 -4 -10 -9
-10 -5 0 -30 -12 -57 -27 l-49 -28 80 -5 c62 -4 80 -8 80 -20 0 -8 8 -14 17
-14 15 1 16 0 1 -22 -11 -17 -12 -24 -3 -24 7 0 10 -7 6 -15 -4 -12 4 -15 45
-15 45 0 51 3 60 28 7 16 13 22 16 14 3 -7 1 -20 -3 -30 -4 -9 -9 -30 -11 -47
-2 -22 0 -26 7 -15 5 8 10 21 10 29 0 35 125 253 251 441 24 36 58 92 74 125
33 64 91 134 130 155 13 7 26 19 29 26 7 17 6 17 -18 -1z m-494 -690 c-5 -29
-15 -25 -17 5 -1 11 4 20 10 20 8 0 10 -10 7 -25z"/>
<path d="M3572 5407 c-14 -40 -15 -47 -3 -47 8 0 24 70 18 77 -2 1 -9 -12 -15
-30z"/>
<path d="M1388 5403 c7 -3 16 -2 19 1 4 3 -2 6 -13 5 -11 0 -14 -3 -6 -6z"/>
<path d="M3537 5313 c-20 -48 -33 -92 -47 -165 -10 -52 -97 -334 -118 -383
-27 -62 -146 -298 -156 -308 -6 -7 -21 -28 -33 -47 -12 -19 -30 -44 -40 -55
-28 -31 -83 -112 -83 -122 1 -17 165 184 206 253 17 28 46 89 64 135 18 46 46
112 61 146 16 35 29 65 29 68 0 3 11 23 25 45 38 61 85 214 95 315 5 50 12
105 16 123 9 43 1 41 -19 -5z"/>
<path d="M1010 5266 c0 -5 129 -44 170 -50 20 -4 53 -16 75 -27 49 -27 123
-53 110 -40 -20 20 -159 83 -214 96 -64 15 -141 27 -141 21z"/>
<path d="M284 5218 c-8 -12 23 -19 166 -37 34 -4 88 -23 140 -48 47 -23 99
-45 115 -48 26 -6 25 -3 -15 20 -57 34 -171 81 -235 95 -77 18 -165 27 -171
18z"/>
<path d="M670 5214 c102 -42 141 -80 75 -72 -40 5 -36 -1 24 -34 40 -22 43
-53 4 -45 -16 3 -32 -1 -40 -9 -27 -27 -65 -28 -142 -4 -42 13 -89 25 -106 28
-16 3 -39 11 -50 18 -19 12 -148 54 -166 54 -14 0 -4 -43 12 -48 29 -10 64
-63 60 -95 l-3 -30 169 6 c117 4 182 11 213 22 44 16 70 18 179 16 30 -1 57 3
60 8 3 4 74 12 156 16 170 8 234 17 287 42 48 23 48 37 1 29 -143 -23 -170
-20 -322 33 -79 28 -149 51 -156 51 -8 0 -11 -8 -8 -19 4 -15 -3 -19 -43 -24
-32 -3 -55 0 -69 9 -27 18 -145 64 -159 63 -6 0 5 -7 24 -15z m298 -91 c5 -18
-23 -16 -39 3 -11 14 -10 15 11 12 13 -1 25 -9 28 -15z m-113 -3 c3 -5 -6 -12
-20 -16 -29 -7 -41 -1 -30 15 8 14 42 14 50 1z"/>
<path d="M190 5088 c0 -11 68 -58 83 -58 3 0 -3 16 -12 35 -12 27 -22 34 -43
35 -16 0 -28 -5 -28 -12z"/>
<path d="M1420 5010 c0 -5 5 -10 10 -10 6 0 10 5 10 10 0 6 -4 10 -10 10 -5 0
-10 -4 -10 -10z"/>
<path d="M1168 4817 c-21 -12 -38 -30 -38 -39 0 -27 12 -22 55 22 44 45 38 50
-17 17z"/>
<path d="M1676 4537 c-7 -45 10 -173 23 -182 4 -2 4 22 -1 53 -4 31 -6 77 -3
102 7 62 -10 87 -19 27z"/>
<path d="M6391 4544 c0 -11 3 -14 6 -6 3 7 2 16 -1 19 -3 4 -6 -2 -5 -13z"/>
<path d="M1277 4543 c-3 -4 -8 -104 -12 -220 -5 -155 -4 -213 4 -213 11 0 17
62 13 130 -2 19 2 71 7 115 15 121 17 188 4 192 -6 2 -13 0 -16 -4z"/>
<path d="M6382 4480 c0 -14 2 -19 5 -12 2 6 2 18 0 25 -3 6 -5 1 -5 -13z"/>
<path d="M1481 4414 c0 -11 3 -14 6 -6 3 7 2 16 -1 19 -3 4 -6 -2 -5 -13z"/>
<path d="M6352 4320 c0 -14 2 -19 5 -12 2 6 2 18 0 25 -3 6 -5 1 -5 -13z"/>
<path d="M1720 4315 c0 -5 16 -43 37 -83 27 -52 39 -68 41 -53 2 11 -15 48
-37 83 -22 35 -41 59 -41 53z"/>
<path d="M6338 4270 c-7 -24 -3 -38 8 -28 3 4 4 17 2 30 l-3 23 -7 -25z"/>
<path d="M3036 4204 c-5 -14 -4 -15 9 -4 17 14 19 20 6 20 -5 0 -12 -7 -15
-16z"/>
<path d="M6301 4083 c-13 -76 -27 -158 -32 -183 -5 -25 -13 -159 -19 -299 -6
-140 -14 -257 -19 -261 -14 -8 -31 -57 -31 -90 0 -16 -6 -35 -14 -43 -8 -8
-18 -31 -21 -51 -4 -20 -11 -36 -16 -36 -5 0 -9 -14 -9 -30 0 -17 -8 -42 -17
-57 -12 -18 -18 -51 -20 -115 -1 -50 -7 -96 -13 -103 -8 -9 -6 -14 5 -19 8 -3
15 -12 15 -21 0 -8 7 -15 15 -15 8 0 15 9 15 19 0 11 5 23 10 26 6 3 10 -1 10
-10 0 -17 52 -75 68 -75 6 0 13 6 16 13 4 8 5 7 4 -3 -2 -30 15 -82 28 -87 20
-7 19 -83 -1 -83 -11 0 -15 11 -15 40 0 22 -4 40 -10 40 -21 0 -10 -69 15 -94
14 -14 25 -34 25 -46 0 -11 7 -20 15 -20 11 0 15 -13 15 -54 0 -54 0 -54 -35
-60 -25 -5 -39 -14 -45 -30 -5 -13 -26 -38 -47 -55 -32 -26 -36 -33 -23 -42
12 -8 10 -9 -8 -4 -16 5 -33 -1 -55 -17 -18 -14 -40 -27 -49 -31 -10 -3 -18
-11 -18 -17 0 -5 -9 -10 -20 -10 -10 0 -36 -11 -56 -25 -20 -14 -41 -22 -46
-19 -13 8 -38 -16 -38 -37 0 -14 -7 -19 -29 -19 -21 0 -32 -6 -36 -19 -3 -11
-16 -23 -28 -26 -20 -7 -63 -32 -129 -77 -15 -10 -34 -18 -43 -18 -8 0 -15 -3
-15 -8 0 -4 -17 -16 -37 -27 -21 -11 -44 -26 -51 -32 -7 -7 -25 -13 -38 -13
-14 0 -35 -9 -47 -20 -12 -12 -33 -23 -47 -26 -42 -9 -50 -13 -50 -24 0 -5 11
-10 25 -10 21 0 25 -5 25 -30 0 -16 -4 -30 -10 -30 -5 0 -10 -11 -10 -25 0
-22 4 -25 35 -25 24 0 35 5 35 15 0 8 8 15 19 15 10 0 24 7 31 15 7 8 19 15
26 15 8 0 14 10 14 25 0 23 4 25 41 25 36 0 40 -2 29 -15 -11 -13 -1 -15 79
-15 93 0 126 16 49 23 l-43 4 43 1 c23 1 42 7 42 12 0 6 18 -8 40 -31 22 -23
40 -51 40 -61 0 -10 4 -18 9 -18 15 0 41 -66 41 -104 0 -25 4 -36 15 -36 8 0
15 -9 15 -21 0 -11 5 -29 10 -40 9 -16 7 -19 -10 -19 -17 0 -20 -6 -20 -40 0
-48 17 -53 23 -8 2 18 3 11 2 -16 -3 -57 3 -83 19 -89 6 -2 3 -3 -6 -2 -10 2
-18 -1 -18 -5 0 -4 -8 -7 -17 -5 -10 1 -13 0 -6 -2 15 -5 26 -54 15 -65 -13
-13 -62 1 -62 18 0 19 -6 18 -31 -7 l-22 -22 24 6 c31 8 62 -8 36 -19 -10 -4
-17 -17 -17 -35 0 -28 -1 -28 -67 -31 -62 -3 -68 -5 -71 -25 -2 -13 -8 -23
-13 -23 -5 0 -9 -7 -9 -15 0 -8 5 -15 10 -15 6 0 10 -18 10 -40 l0 -40 -40 4
c-38 4 -45 0 -96 -49 -47 -44 -62 -53 -103 -58 -34 -4 -55 -1 -70 9 -19 14
-23 14 -37 0 -21 -22 -63 -31 -77 -17 -6 6 -26 11 -44 11 -26 0 -33 -4 -33
-20 0 -16 -7 -20 -35 -20 -34 0 -48 -14 -22 -23 24 -9 -30 -47 -68 -47 -32 0
-35 -2 -35 -30 0 -28 -2 -30 -40 -30 l-40 0 0 -65 c0 -53 -3 -65 -16 -65 -14
0 -14 -3 -4 -15 7 -8 18 -15 24 -15 7 0 23 -11 36 -25 13 -14 31 -25 41 -25 9
0 23 -7 30 -16 30 -36 88 -64 133 -64 40 0 48 -4 76 -40 33 -41 80 -56 80 -25
0 19 21 19 46 0 25 -19 34 -19 34 0 0 19 21 19 46 0 24 -18 75 -19 93 -3 11
10 14 10 18 1 3 -10 38 -13 128 -13 122 0 123 0 118 -22 -4 -18 -3 -20 6 -8 9
12 14 13 31 2 16 -10 20 -10 20 2 0 8 -6 17 -12 19 -9 4 -8 6 3 6 8 1 19 -3
25 -8 12 -12 175 -18 193 -7 9 6 10 10 2 16 -6 3 4 6 22 6 27 -1 33 -4 29 -18
-4 -15 3 -18 37 -18 30 0 41 4 41 15 0 11 12 15 46 15 44 0 46 1 40 24 -5 20
-3 23 14 19 15 -4 20 0 20 16 0 13 6 21 16 21 15 0 15 -2 2 -22 -19 -29 -29
-68 -18 -68 5 0 16 14 24 32 14 27 16 115 16 739 l0 709 -31 92 c-27 82 -30
102 -25 169 5 70 23 145 47 194 8 16 7 412 -1 880 -1 28 2 87 5 133 6 72 4 91
-16 145 -12 34 -27 68 -33 76 -13 17 -14 164 -2 310 6 76 6 102 -3 97 -6 -4
-11 -24 -11 -44 0 -20 -4 -48 -7 -62 -7 -23 -8 -21 -14 15 l-6 40 -2 -37 c0
-21 -5 -38 -11 -38 -12 0 -12 20 -1 75 5 22 10 31 11 20 1 -15 4 -13 11 9 5
19 5 34 -2 42 -12 14 5 200 23 250 7 20 7 37 1 48 -7 12 -15 -20 -32 -121z
m-441 -2043 c0 -5 -4 -10 -10 -10 -5 0 -10 5 -10 10 0 6 5 10 10 10 6 0 10 -4
10 -10z m-427 -277 c-7 -2 -21 -2 -30 0 -10 3 -4 5 12 5 17 0 24 -2 18 -5z
m519 -428 c0 -5 -5 -11 -11 -13 -6 -2 -11 4 -11 13 0 9 5 15 11 13 6 -2 11 -8
11 -13z m-897 -765 c3 -5 1 -10 -4 -10 -6 0 -11 5 -11 10 0 6 2 10 4 10 3 0 8
-4 11 -10z m1095 -222 c0 -13 -28 -9 -33 5 -3 8 -10 6 -21 -8 -12 -16 -15 -17
-16 -4 0 27 19 38 46 25 13 -6 24 -14 24 -18z"/>
<path d="M3006 4163 c-6 -14 -5 -15 5 -6 7 7 10 15 7 18 -3 3 -9 -2 -12 -12z"/>
<path d="M2941 4086 c-23 -30 -41 -60 -41 -66 0 -5 -5 -10 -12 -10 -6 0 -8 -3
-4 -7 8 -8 25 11 77 85 46 64 27 63 -20 -2z"/>
<path d="M455 4124 c-180 -15 -243 -24 -282 -43 -23 -12 -49 -21 -57 -21 -21
0 -84 -56 -101 -91 -13 -23 -15 -129 -14 -669 0 -596 2 -641 17 -635 9 4 42
16 72 26 30 11 58 23 62 27 4 4 2 29 -4 55 -13 62 -5 93 30 112 15 8 37 23 50
34 l23 20 -26 40 c-38 57 -42 106 -14 166 35 74 97 128 176 154 90 30 281 54
375 48 88 -6 82 -9 161 106 47 69 55 83 37 72 -5 -3 -101 -14 -212 -25 -184
-18 -238 -25 -377 -46 -32 -5 -42 -4 -37 4 4 7 1 12 -9 12 -10 0 -15 -6 -12
-13 3 -9 -11 -19 -39 -30 -47 -17 -50 -16 -33 14 10 20 9 20 -19 5 -17 -9 -47
-31 -67 -51 -21 -19 -41 -35 -46 -35 -26 0 -35 428 -10 490 37 91 94 133 208
150 191 29 612 21 833 -16 47 -8 88 -14 92 -14 11 0 88 84 88 98 0 6 -3 12 -7
12 -5 0 -73 9 -153 20 -141 20 -576 34 -705 24z"/>
<path d="M2838 3950 c-19 -22 -32 -40 -28 -40 8 0 72 72 67 76 -2 2 -19 -14
-39 -36z"/>
<path d="M2764 3868 l-29 -33 33 29 c17 17 32 31 32 33 0 8 -8 1 -36 -29z"/>
<path d="M2675 3800 c-27 -22 -54 -40 -59 -40 -23 0 -118 -91 -149 -143 -28
-47 -36 -71 -41 -136 -7 -71 -5 -85 19 -142 15 -35 30 -75 35 -89 5 -14 22
-63 39 -110 51 -138 74 -238 68 -300 -5 -54 -35 -129 -65 -162 -8 -10 -11 -18
-6 -18 16 0 90 123 103 171 23 84 -18 260 -92 389 -17 30 -33 57 -36 60 -4 3
-14 28 -24 55 -32 94 -18 182 45 273 33 48 127 143 172 175 21 14 55 58 44 56
-2 0 -25 -18 -53 -39z"/>
<path d="M458 3523 c6 -2 18 -2 25 0 6 3 1 5 -13 5 -14 0 -19 -2 -12 -5z"/>
<path d="M355 3500 c-8 -13 5 -13 25 0 13 8 13 10 -2 10 -9 0 -20 -4 -23 -10z"/>
<path d="M845 2652 c44 -42 99 -98 122 -124 45 -50 105 -96 88 -68 -11 19 -85
115 -122 157 -36 42 -132 113 -152 113 -9 0 19 -34 64 -78z"/>
<path d="M722 2497 c5 -34 25 -100 44 -147 19 -46 34 -90 34 -97 0 -7 4 -13 9
-13 5 0 12 -15 16 -32 4 -18 16 -60 27 -93 11 -33 26 -95 34 -139 7 -43 15
-81 17 -83 2 -2 27 21 55 51 39 41 52 62 52 85 0 16 5 51 11 78 l11 48 -134
135 c-125 126 -135 139 -152 198 -25 83 -35 86 -24 9z m158 -328 c0 -5 -7 -9
-15 -9 -9 0 -15 9 -15 21 0 18 2 19 15 9 8 -7 15 -16 15 -21z"/>
<path d="M2390 2515 c-7 -9 -8 -15 -2 -15 5 0 12 7 16 15 3 8 4 15 2 15 -2 0
-9 -7 -16 -15z"/>
<path d="M1920 2340 c-110 -3 -206 -11 -220 -17 -21 -10 -22 -12 -5 -12 11 0
45 4 75 9 30 4 114 3 185 -2 77 -6 144 -6 164 -1 40 10 55 34 19 31 -12 -1
-111 -5 -218 -8z"/>
<path d="M1445 2160 c-3 -6 1 -7 9 -4 18 7 21 14 7 14 -6 0 -13 -4 -16 -10z"/>
<path d="M1418 2123 c-31 -36 -68 -123 -93 -224 -25 -98 -79 -252 -95 -274 -5
-5 -54 -100 -109 -210 -56 -110 -107 -209 -114 -220 -113 -183 -266 -329 -407
-391 -86 -37 -182 -87 -226 -116 -27 -18 -66 -42 -87 -52 -61 -32 -204 -188
-218 -239 -6 -23 -22 -68 -35 -99 -29 -69 -32 -155 -8 -240 l17 -58 68 0 c68
0 84 9 61 36 -11 12 -39 105 -51 169 -7 36 -6 69 5 120 17 83 36 148 44 155 3
3 19 23 35 46 58 79 134 126 345 214 41 17 89 43 107 58 50 43 66 56 98 76 82
53 233 228 262 302 4 10 22 38 39 61 18 24 36 53 39 65 4 13 46 102 93 198
124 256 146 311 196 490 15 52 34 106 42 118 19 29 13 39 -8 15z"/>
<path d="M510 1905 c0 -3 46 -50 101 -106 l102 -101 30 30 29 30 -23 31 c-12
17 -28 31 -34 31 -7 0 -20 9 -30 20 -10 11 -24 20 -32 20 -7 0 -13 4 -13 10 0
7 -50 22 -82 25 -3 0 -10 3 -14 8 -8 8 -34 10 -34 2z"/>
<path d="M5165 1690 c-3 -5 3 -10 14 -10 12 0 21 5 21 10 0 6 -6 10 -14 10 -8
0 -18 -4 -21 -10z"/>
<path d="M5252 1668 c6 -18 28 -21 28 -4 0 9 -7 16 -16 16 -9 0 -14 -5 -12
-12z"/>
<path d="M519 1583 c-6 -16 -13 -44 -14 -65 -2 -20 -11 -48 -21 -62 -32 -50
-7 -36 35 18 45 60 48 71 25 101 -13 18 -13 20 3 27 17 6 17 7 0 7 -10 1 -22
-10 -28 -26z"/>
<path d="M182 1548 c-12 -24 -22 -49 -22 -55 0 -7 -4 -13 -9 -13 -5 0 -13 -10
-16 -22 -7 -24 -47 -113 -72 -162 -9 -16 -16 -48 -17 -72 -3 -51 -10 -62 -31
-44 -13 10 -15 9 -15 -9 0 -11 5 -21 10 -21 6 0 10 -7 10 -15 0 -8 -4 -15 -10
-15 -6 0 -10 -35 -10 -86 l0 -86 27 18 c16 10 61 43 101 73 41 31 86 62 102
70 15 7 35 27 45 45 l18 31 -24 -20 c-13 -11 -29 -26 -37 -32 -7 -7 -19 -13
-26 -13 -7 0 -25 -13 -41 -30 -28 -30 -55 -39 -55 -20 0 6 -8 10 -17 10 -15 0
-14 -2 3 -14 23 -17 14 -30 -15 -21 -31 9 -26 29 17 73 39 39 39 40 41 126 1
59 7 100 20 129 56 130 76 206 56 213 -6 2 -20 -15 -33 -38z"/>
<path d="M5857 1263 c-3 -5 5 -19 18 -31 13 -12 26 -19 28 -15 3 5 -5 19 -18
31 -13 12 -26 19 -28 15z"/>
<path d="M5805 1250 c3 -5 8 -10 11 -10 2 0 4 5 4 10 0 6 -5 10 -11 10 -5 0
-7 -4 -4 -10z"/>
<path d="M5780 1230 c0 -5 5 -10 11 -10 5 0 7 5 4 10 -3 6 -8 10 -11 10 -2 0
-4 -4 -4 -10z"/>
<path d="M5640 986 c0 -9 7 -16 16 -16 9 0 14 5 12 12 -6 18 -28 21 -28 4z"/>
<path d="M5010 796 c0 -2 7 -9 15 -16 12 -10 15 -10 15 4 0 9 -7 16 -15 16 -8
0 -15 -2 -15 -4z"/>
<path d="M6140 255 c0 -8 5 -15 10 -15 6 0 10 7 10 15 0 8 -4 15 -10 15 -5 0
-10 -7 -10 -15z"/>
</g>
</svg>
